<?xml version="1.0" standalone="no"?>
<!DOCTYPE svg PUBLIC "-//W3C//DTD SVG 20010904//EN"
 "http://www.w3.org/TR/2001/REC-SVG-20010904/DTD/svg10.dtd">
<svg version="1.0" xmlns="http://www.w3.org/2000/svg"
 width="840.000000pt" height="859.000000pt" viewBox="0 0 840.000000 859.000000"
 preserveAspectRatio="xMidYMid meet">

 <style>
 .main-element {
     fill: #fff;
 }
svg.sticky .main-element {
     fill: #fed136;
 }
 </style>

<g transform="translate(0.000000,859.000000) scale(0.100000,-0.100000)"
fill="#FFFFFF" stroke="none" class="main-element">
<path d="M5700 7909 c-48 -19 -87 -53 -305 -270 -153 -152 -258 -249 -270
-249 -11 0 -83 63 -175 155 -189 188 -226 209 -361 209 -165 0 57 208 -2350
-2201 -2405 -2407 -2194 -2181 -2194 -2348 0 -82 3 -97 33 -157 29 -60 72
-106 429 -457 395 -390 444 -431 507 -431 15 0 60 14 99 32 58 26 89 33 155
36 77 4 88 2 147 -27 79 -39 146 -111 175 -189 31 -80 24 -172 -18 -269 -36
-80 -40 -128 -15 -180 9 -20 190 -211 411 -435 352 -355 402 -402 461 -431 59
-29 75 -32 151 -32 143 1 162 13 450 301 135 134 252 244 260 244 8 0 84 -70
170 -155 191 -190 227 -210 365 -210 78 0 97 4 145 27 46 23 388 360 2206
2180 2098 2099 2152 2154 2174 2213 18 49 21 75 18 145 -7 144 1 134 -453 586
-222 221 -419 408 -438 418 -53 25 -109 20 -190 -16 -62 -27 -84 -32 -152 -32
-98 0 -152 21 -225 90 -74 69 -105 139 -105 239 0 69 5 90 33 152 36 81 41
136 15 191 -10 20 -188 208 -417 438 -455 456 -442 446 -591 451 -73 3 -100
-1 -145 -18z m462 -656 c167 -170 313 -320 322 -336 18 -26 18 -32 1 -134 -21
-127 -15 -220 20 -332 41 -130 129 -243 249 -322 114 -75 301 -113 436 -89 36
6 85 14 110 17 l46 5 327 -322 c228 -225 327 -329 327 -344 0 -15 -603 -624
-2083 -2104 -1145 -1145 -2088 -2082 -2096 -2082 -23 0 -261 241 -261 265 0
14 469 489 1468 1488 807 807 1472 1467 1477 1467 6 0 34 -18 63 -40 83 -62
164 -66 230 -13 92 75 96 182 11 281 -16 18 -29 38 -29 44 0 6 65 77 145 158
181 183 200 218 200 360 0 151 12 135 -449 597 -486 487 -472 478 -626 408
-68 -31 -88 -35 -157 -35 -69 0 -88 4 -140 30 -70 35 -136 101 -166 168 -16
36 -21 67 -22 132 0 75 4 93 33 154 60 127 45 174 -103 326 -58 59 -105 114
-105 121 0 23 422 439 445 439 15 0 119 -98 327 -307z m-1395 -25 c90 -90 175
-182 189 -205 14 -25 49 -59 82 -82 31 -22 95 -78 141 -125 l85 -85 -17 -104
c-21 -129 -21 -183 -2 -284 42 -220 222 -410 441 -467 67 -17 241 -21 309 -7
22 5 55 12 73 16 32 7 36 4 348 -311 174 -176 323 -329 331 -341 10 -16 12
-27 4 -40 -18 -33 -3515 -3519 -3563 -3551 -25 -18 -56 -49 -69 -69 -34 -59
-510 -533 -534 -533 -13 0 -133 113 -348 328 -180 180 -327 332 -327 337 0 6
7 45 15 88 31 162 11 321 -57 450 -20 38 -63 93 -113 142 -87 88 -161 131
-271 159 -77 20 -248 21 -328 2 -35 -8 -68 -11 -80 -6 -12 4 -166 151 -344
325 -226 222 -322 323 -322 338 0 29 3266 3297 3294 3297 10 0 45 -10 77 -21
l59 -22 56 34 c79 47 86 62 81 156 -2 43 -7 89 -12 101 -7 21 24 55 301 333
170 170 316 309 323 309 8 0 88 -73 178 -162z"/>
<path d="M4143 6409 c-24 -11 -56 -36 -73 -55 -26 -30 -30 -42 -30 -95 0 -80
17 -113 98 -191 55 -53 79 -69 134 -87 65 -22 68 -22 104 -5 20 9 51 32 70 49
33 31 34 35 34 104 0 89 -10 108 -97 192 -51 50 -81 70 -123 84 -30 10 -59 20
-65 22 -5 1 -29 -6 -52 -18z"/>
<path d="M4613 5885 c-65 -44 -73 -58 -73 -138 0 -55 4 -70 29 -103 56 -76
124 -133 191 -159 80 -31 86 -31 142 4 60 38 75 63 83 137 9 78 -2 100 -97
189 -57 55 -85 74 -129 88 -76 23 -87 22 -146 -18z"/>
<path d="M5113 5385 c-56 -37 -59 -42 -68 -126 -9 -76 8 -111 99 -196 58 -56
82 -72 133 -87 75 -23 97 -18 155 33 44 39 45 43 51 108 7 88 -5 114 -96 200
-56 53 -85 72 -128 86 -76 23 -87 22 -146 -18z"/>
<path d="M5651 4903 c-18 -9 -48 -31 -66 -48 -28 -26 -34 -39 -40 -96 -9 -81
-4 -91 88 -186 72 -74 142 -113 204 -113 30 0 116 52 138 83 19 28 20 139 1
175 -8 15 -45 57 -83 93 -54 53 -81 70 -132 87 -77 26 -68 26 -110 5z"/>
</g>
</svg>
